<?xml version="1.0" standalone="no"?>
<!DOCTYPE svg PUBLIC "-//W3C//DTD SVG 20010904//EN"
 "http://www.w3.org/TR/2001/REC-SVG-20010904/DTD/svg10.dtd">
<svg version="1.0" xmlns="http://www.w3.org/2000/svg"
 width="500.000000pt" height="500.000000pt" viewBox="0 0 500.000000 500.000000"
 preserveAspectRatio="xMidYMid meet">

<g transform="translate(0.000000,500.000000) scale(0.100000,-0.100000)"
fill="#000000" stroke="none">
<path d="M2260 2794 c-333 -39 -362 -45 -386 -73 -13 -15 -124 -245 -124 -258
0 -2 14 -3 32 -1 29 3 33 7 44 51 40 158 200 239 527 269 128 11 327 5 552
-17 22 -2 9 3 -30 11 -68 14 -530 28 -615 18z"/>
<path d="M2535 2740 c371 -14 511 -48 573 -140 28 -41 26 -56 -11 -84 -28 -21
-38 -21 -455 -22 -264 0 -465 -5 -527 -13 -206 -24 -369 -68 -497 -132 -79
-40 -73 -45 7 -8 242 110 797 161 1394 128 106 -5 195 -8 197 -6 9 9 -80 171
-114 206 -36 37 -40 38 -162 56 -86 12 -202 18 -375 20 l-250 3 220 -8z"/>
<path d="M1565 2525 c-45 -44 -23 -75 54 -75 22 0 52 -5 67 -10 19 -8 30 -8
38 0 7 7 0 10 -21 10 -17 0 -36 6 -43 14 -6 8 -26 16 -43 18 -42 4 -48 32 -10
45 38 14 71 0 80 -34 l7 -28 6 35 c3 19 4 38 2 43 -2 4 -28 7 -58 7 -45 0 -59
-4 -79 -25z"/>
<path d="M3265 2538 c-3 -7 -1 -26 3 -43 l9 -30 6 27 c9 33 46 46 83 29 32
-14 32 -41 -1 -41 -13 0 -39 -9 -57 -20 -18 -11 -41 -20 -51 -20 -10 0 -16 -4
-12 -9 3 -6 19 -4 40 5 19 8 54 14 78 14 55 0 73 17 56 53 -6 14 -22 30 -36
36 -33 15 -112 14 -118 -1z"/>
<path d="M2351 2439 c-116 -9 -291 -34 -336 -49 -30 -10 -30 -10 5 -5 180 25
349 37 590 43 240 6 267 8 175 13 -148 9 -308 8 -434 -2z"/>
<path d="M2928 2423 c18 -2 45 -2 60 0 15 2 0 4 -33 4 -33 0 -45 -2 -27 -4z"/>
<path d="M3015 2410 c-29 -7 -28 -8 10 -8 22 -1 58 3 80 7 l40 9 -50 0 c-27 0
-63 -4 -80 -8z"/>
<path d="M3333 2384 c-70 -41 -150 -64 -272 -75 -101 -10 -125 -9 -181 5 -70
18 -90 30 -74 45 11 11 103 31 147 32 18 0 26 3 19 6 -17 7 -200 -15 -253 -30
-24 -7 -44 -17 -46 -23 -6 -17 124 -72 200 -85 90 -15 189 0 343 51 177 60
226 53 260 -35 9 -25 19 -43 21 -41 16 15 -87 176 -112 176 -5 0 -29 -12 -52
-26z"/>
<path d="M1948 2373 c7 -3 16 -2 19 1 4 3 -2 6 -13 5 -11 0 -14 -3 -6 -6z"/>
<path d="M1222 2059 c-95 -16 -152 -62 -152 -124 0 -38 37 -80 88 -102 50 -21
152 -27 211 -13 47 11 51 14 51 41 l0 28 -42 -19 c-116 -53 -282 13 -238 95 7
13 29 32 48 41 45 21 149 21 191 0 40 -21 43 -20 39 11 -2 19 -10 29 -28 33
-51 14 -117 17 -168 9z"/>
<path d="M2585 2063 c-71 -16 -85 -24 -85 -53 l0 -28 37 19 c51 26 142 26 174
0 l24 -19 -20 -22 c-24 -27 -101 -63 -172 -80 -46 -10 -53 -15 -53 -36 l0 -24
155 0 155 0 0 25 c0 25 -1 25 -82 25 l-83 1 49 19 c59 23 106 66 106 95 0 54
-116 98 -205 78z"/>
<path d="M3209 2060 c-161 -28 -204 -155 -76 -222 42 -22 94 -26 272 -18 l50
2 0 56 0 56 -75 1 c-68 0 -75 -2 -75 -20 0 -17 7 -20 48 -20 26 0 47 -3 47 -6
0 -12 -56 -31 -106 -36 -151 -16 -239 101 -114 151 57 22 142 21 190 -4 l40
-20 0 29 c0 26 -5 31 -37 40 -63 16 -116 19 -164 11z"/>
<path d="M3654 2060 c-92 -13 -164 -63 -164 -114 0 -33 34 -81 76 -107 34 -21
51 -24 134 -24 107 0 148 12 198 59 102 95 -50 212 -244 186z m170 -63 c54
-35 51 -78 -7 -121 -39 -29 -167 -30 -214 -2 -70 43 -58 110 24 136 43 14 168
6 197 -13z"/>
<path d="M1587 2028 c-37 -51 -137 -199 -137 -204 0 -2 13 -4 30 -4 19 0 33 7
40 20 10 18 21 20 125 20 104 0 115 -2 125 -20 7 -13 21 -20 41 -20 17 0 29 4
27 8 -1 5 -36 59 -77 120 -73 110 -75 112 -112 112 -31 0 -42 -6 -62 -32z
m101 -62 c17 -30 32 -56 32 -58 0 -1 -34 -3 -75 -3 -41 -1 -75 1 -75 4 0 8 73
111 79 111 3 0 21 -25 39 -54z"/>
<path d="M1890 1941 l0 -121 30 0 c29 0 30 2 30 45 l0 45 68 0 c67 0 68 0 112
-45 36 -36 51 -45 79 -45 l35 0 -42 43 c-23 23 -42 45 -42 49 0 3 11 9 25 12
50 13 59 93 12 118 -13 7 -80 13 -164 16 l-143 5 0 -122z m269 55 c22 -26 -14
-39 -112 -40 l-92 -1 -3 28 -3 27 99 0 c72 0 103 -4 111 -14z"/>
<path d="M2276 1935 c5 -11 23 -15 79 -15 56 0 74 4 79 15 4 13 -8 15 -79 15
-71 0 -83 -2 -79 -15z"/>
<path d="M2860 1935 c0 -12 16 -15 80 -15 64 0 80 3 80 15 0 12 -16 15 -80 15
-64 0 -80 -3 -80 -15z"/>
</g>
</svg>
